<svg clip-rule="evenodd" fill-rule="evenodd" stroke-linejoin="round" stroke-miterlimit="2" viewBox="0 0 24 24" xmlns="http://www.w3.org/2000/svg"><path d="m0 .18.019-.12h.043c.027 0 .049-.007.066-.021s.028-.033.031-.058l.045-.281h-.152l.022-.135h.152l.02-.125c.005-.034.018-.064.038-.09.02-.025.045-.045.076-.059s.065-.021.103-.021h.137l-.021.13h-.132c-.013 0-.025.004-.034.012-.009.009-.015.02-.018.033l-.019.12h.195l-.022.135h-.195l-.046.286c-.01.06-.038.107-.084.142-.047.035-.105.052-.176.052z" fill-rule="nonzero" transform="matrix(26.66664 0 0 26.3736 4.000000285 19.25276643)"/></svg>