<svg clip-rule="evenodd" fill-rule="evenodd" stroke-linejoin="round" stroke-miterlimit="2" viewBox="0 0 16 16" xmlns="http://www.w3.org/2000/svg"><path d="m16 2v12c0 1.104-.896 2-2 2h-12c-1.104 0-2-.896-2-2v-12c0-1.104.896-2 2-2h12c1.104 0 2 .896 2 2z" fill="#606060"/><path d="m10.743 17.569.456-2.88h1.032c.64 0 1.168-.168 1.584-.504s.664-.8.744-1.392l1.08-6.744h-3.648l.528-3.24h3.648l.48-3c.128-.816.432-1.532.912-2.148s1.088-1.092 1.824-1.428 1.56-.504 2.472-.504h3.288l-.504 3.12h-3.168c-.32 0-.592.1-.816.3s-.368.46-.432.78l-.456 2.88h4.68l-.528 3.24h-4.68l-1.104 6.864c-.24 1.44-.916 2.576-2.028 3.408s-2.516 1.248-4.212 1.248z" fill="#f0f0f0" fill-rule="nonzero" transform="matrix(.552451 0 0 .549451 -1.9049 4.34688)"/></svg>